<?xml version="1.0" encoding="utf-8"?>
<!-- Generator: Adobe Illustrator 22.0.1, SVG Export Plug-In . SVG Version: 6.00 Build 0)  -->
<!DOCTYPE svg PUBLIC "-//W3C//DTD SVG 1.1//EN" "http://www.w3.org/Graphics/SVG/1.1/DTD/svg11.dtd">
<svg version="1.1" id="Layer_1" xmlns="http://www.w3.org/2000/svg" xmlns:xlink="http://www.w3.org/1999/xlink" x="0px" y="0px"
	 viewBox="0 0 47 46" style="enable-background:new 0 0 47 46;" xml:space="preserve">
<style type="text/css">
	.st0{fill:#FFFFFF;}
</style>
<g>
	<g>
		<g>
			<path class="st0" d="M23.2,32.9c-1.1,0-1.9-0.9-1.9-1.9v-15c0-1.1,0.9-1.9,1.9-1.9c1.1,0,1.9,0.9,1.9,1.9v15
				C25.1,32,24.3,32.9,23.2,32.9L23.2,32.9z"/>
		</g>
		<g>
			<path class="st0" d="M30.7,25.4H15.7c-1.1,0-1.9-0.9-1.9-1.9c0-1.1,0.9-1.9,1.9-1.9h15.1c1.1,0,1.9,0.9,1.9,1.9
				C32.7,24.5,31.8,25.4,30.7,25.4L30.7,25.4z"/>
		</g>
	</g>
	<g>
		<path class="st0" d="M23.2,46c-6,0-11.7-2.3-15.9-6.6c-8.8-8.8-8.8-23.1,0-31.8C11.6,3.3,17.2,1,23.2,1c6,0,11.7,2.3,15.9,6.6
			c8.8,8.8,8.8,23,0,31.8C34.9,43.6,29.2,46,23.2,46L23.2,46z M23.2,4.8c-5,0-9.7,1.9-13.2,5.5c-7.3,7.3-7.3,19.1,0,26.4
			c3.5,3.5,8.2,5.5,13.2,5.5c5,0,9.7-1.9,13.2-5.5c7.3-7.3,7.3-19.1,0-26.4C32.9,6.7,28.2,4.8,23.2,4.8L23.2,4.8z"/>
	</g>
</g>
</svg>
