<?xml version="1.0" encoding="utf-8"?>
<!-- Generator: Adobe Illustrator 21.1.0, SVG Export Plug-In . SVG Version: 6.00 Build 0)  -->
<!DOCTYPE svg PUBLIC "-//W3C//DTD SVG 1.1//EN" "http://www.w3.org/Graphics/SVG/1.1/DTD/svg11.dtd">
<svg version="1.1" id="Layer_1" xmlns="http://www.w3.org/2000/svg" xmlns:xlink="http://www.w3.org/1999/xlink" x="0px" y="0px"
	 viewBox="0 0 44.2 43.2" style="enable-background:new 0 0 44.2 43.2;" xml:space="preserve">
<style type="text/css">
	.st0{fill:#050709;}
</style>
<g>
	<g>
		<g>
			<path class="st0" d="M22.1,30.8c-1,0-1.8-0.8-1.8-1.8V14.8c0-1,0.8-1.8,1.8-1.8s1.8,0.8,1.8,1.8V29C23.9,30,23.1,30.8,22.1,30.8
				L22.1,30.8z"/>
		</g>
		<g>
			<path class="st0" d="M29.2,23.7H15c-1,0-1.8-0.8-1.8-1.8s0.8-1.8,1.8-1.8h14.2c1,0,1.8,0.8,1.8,1.8C31,22.9,30.2,23.7,29.2,23.7
				L29.2,23.7z"/>
		</g>
	</g>
	<g>
		<path class="st0" d="M22.1,43.2c-5.7,0-11-2.2-15.1-6.2c-8.3-8.3-8.3-21.8,0-30.1c4-4,9.4-6.2,15.1-6.2s11,2.2,15.1,6.2
			c8.3,8.3,8.3,21.8,0,30.1C33.1,41,27.8,43.2,22.1,43.2L22.1,43.2z M22.1,4.2c-4.7,0-9.2,1.8-12.5,5.2c-6.9,6.9-6.9,18.1,0,25
			c3.3,3.3,7.8,5.2,12.5,5.2s9.2-1.8,12.5-5.2c6.9-6.9,6.9-18.1,0-25C31.3,6.1,26.8,4.2,22.1,4.2L22.1,4.2z"/>
	</g>
</g>
</svg>
