<?xml version="1.0" encoding="utf-8"?>
<!-- Generator: Adobe Illustrator 22.0.1, SVG Export Plug-In . SVG Version: 6.00 Build 0)  -->
<!DOCTYPE svg PUBLIC "-//W3C//DTD SVG 1.1//EN" "http://www.w3.org/Graphics/SVG/1.1/DTD/svg11.dtd">
<svg version="1.1" id="Layer_1" xmlns="http://www.w3.org/2000/svg" xmlns:xlink="http://www.w3.org/1999/xlink" x="0px" y="0px"
	 viewBox="0 0 30 30" style="enable-background:new 0 0 30 30;" xml:space="preserve">
<style type="text/css">
	.st0{fill:#FFFFFF;}
</style>
<g>
	<g>
		<path class="st0" d="M15,30c-4,0-7.8-1.6-10.6-4.4S0,19,0,15S1.6,7.2,4.4,4.4C7.3,1.6,11,0,15,0s7.8,1.6,10.6,4.4
			c5.8,5.8,5.8,15.4,0,21.2C22.8,28.4,19,30,15,30L15,30z M15,2.5c-3.3,0-6.4,1.3-8.8,3.6C3.9,8.5,2.6,11.7,2.6,15s1.3,6.5,3.6,8.8
			s5.5,3.6,8.8,3.6s6.5-1.3,8.8-3.6c4.8-4.9,4.8-12.7,0-17.6C21.5,3.8,18.3,2.5,15,2.5L15,2.5z"/>
	</g>
	<g>
		<path class="st0" d="M11.9,22.4c-0.3,0-0.7-0.1-0.9-0.4c-0.5-0.5-0.5-1.3,0-1.8l5.3-5.3L11,9.7c-0.5-0.5-0.5-1.3,0-1.8
			s1.3-0.5,1.8,0l6.2,6.2c0.2,0.2,0.4,0.6,0.4,0.9c0,0.3-0.1,0.7-0.4,0.9L12.8,22C12.6,22.3,12.3,22.4,11.9,22.4L11.9,22.4z"/>
	</g>
</g>
</svg>
