<?xml version="1.0" encoding="utf-8"?>
<!-- Generator: Adobe Illustrator 21.1.0, SVG Export Plug-In . SVG Version: 6.00 Build 0)  -->
<!DOCTYPE svg PUBLIC "-//W3C//DTD SVG 1.1//EN" "http://www.w3.org/Graphics/SVG/1.1/DTD/svg11.dtd">
<svg version="1.1" id="Layer_1" xmlns="http://www.w3.org/2000/svg" xmlns:xlink="http://www.w3.org/1999/xlink" x="0px" y="0px"
	 viewBox="0 0 42.9 39.6" style="enable-background:new 0 0 42.9 39.6;" xml:space="preserve">
<style type="text/css">
	.st0{fill:#999999;}
</style>
<g>
	<path class="st0" d="M9.9,37.5c-0.5,0-0.9,0-1.4-0.1c-0.7-0.1-1.4-0.6-1.5-1.3s0.2-1.5,0.9-1.8c1.5-0.7,2.7-1.7,3.6-2.9
		c-5.7-2.7-9.3-7.8-9.3-13.3c0-8.6,8.6-15.6,19.3-15.6c10.6,0,19.3,7,19.3,15.6s-8.6,15.6-19.3,15.6c-0.3,0-0.5,0-0.7,0
		C18,36.1,14.2,37.5,9.9,37.5L9.9,37.5z M21.4,5.9c-8.8,0-16,5.5-16,12.2c0,4.6,3.5,8.9,9,11c0.4,0.2,0.8,0.5,1,0.9s0.2,0.9-0.1,1.3
		l-0.1,0.2c-0.1,0.2-0.2,0.4-0.3,0.6c-0.3,0.5-0.6,1-1,1.4c1.9-0.6,3.6-1.5,4.9-2.9c0.3-0.3,0.8-0.5,1.3-0.5c0.4,0,0.8,0.1,1.3,0.1
		c8.8,0,16-5.5,16-12.2S30.2,5.9,21.4,5.9L21.4,5.9z"/>
</g>
</svg>
