<?xml version="1.0" encoding="utf-8"?>
<!-- Generator: Adobe Illustrator 22.0.1, SVG Export Plug-In . SVG Version: 6.00 Build 0)  -->
<!DOCTYPE svg PUBLIC "-//W3C//DTD SVG 1.1//EN" "http://www.w3.org/Graphics/SVG/1.1/DTD/svg11.dtd">
<svg version="1.1" id="Layer_1" xmlns="http://www.w3.org/2000/svg" xmlns:xlink="http://www.w3.org/1999/xlink" x="0px" y="0px"
	 viewBox="0 0 31 31" style="enable-background:new 0 0 31 31;" xml:space="preserve">
<style type="text/css">
	.st0{fill:#2F3742;}
</style>
<g>
	<g>
		<path class="st0" d="M2.4,30.5c-0.4,0-0.9-0.2-1.2-0.5c-0.7-0.7-0.7-1.8,0-2.4L27.8,1c0.7-0.7,1.8-0.7,2.4,0
			c0.7,0.7,0.7,1.8,0,2.4L3.6,30C3.3,30.3,2.8,30.5,2.4,30.5L2.4,30.5z"/>
	</g>
	<g>
		<path class="st0" d="M29,30.5c-0.4,0-0.9-0.2-1.2-0.5L1.2,3.4C0.5,2.7,0.5,1.7,1.2,1c0.7-0.7,1.8-0.7,2.4,0l26.6,26.6
			c0.7,0.7,0.7,1.8,0,2.4C29.9,30.3,29.4,30.5,29,30.5L29,30.5z"/>
	</g>
</g>
</svg>
