<?xml version="1.0" encoding="utf-8"?>
<!-- Generator: Adobe Illustrator 21.1.0, SVG Export Plug-In . SVG Version: 6.00 Build 0)  -->
<!DOCTYPE svg PUBLIC "-//W3C//DTD SVG 1.1//EN" "http://www.w3.org/Graphics/SVG/1.1/DTD/svg11.dtd">
<svg version="1.1" id="Layer_1" xmlns="http://www.w3.org/2000/svg" xmlns:xlink="http://www.w3.org/1999/xlink" x="0px" y="0px"
	 viewBox="0 0 54.5 54.3" style="enable-background:new 0 0 54.5 54.3;" xml:space="preserve">
<style type="text/css">
	.st0{fill:none;stroke:#1E232B;stroke-width:1.5;stroke-miterlimit:10;}
	.st1{fill:#1E232B;}
</style>
<circle class="st0" cx="27.4" cy="27.3" r="25"/>
<g>
	<g>
		<path class="st1" d="M38,37.6H16.9c-1.5,0-2.7-1.2-2.7-2.7V21.1c0-1.5,1.2-2.7,2.7-2.7H38c1.5,0,2.7,1.2,2.7,2.7v13.8
			C40.7,36.4,39.5,37.6,38,37.6L38,37.6z M16.9,20.7c-0.2,0-0.4,0.2-0.4,0.4v13.8c0,0.2,0.2,0.4,0.4,0.4H38c0.2,0,0.4-0.2,0.4-0.4
			V21.1c0-0.2-0.2-0.4-0.4-0.4H16.9L16.9,20.7z"/>
	</g>
	<g>
		<path class="st1" d="M38,37H16.9c-0.9,0-1.7-0.6-2-1.4c-0.1-0.2,0-0.5,0.2-0.6l8.2-7.3c0.2-0.2,0.6-0.2,0.8,0s0.2,0.6,0,0.8
			l-7.9,7c0.2,0.2,0.4,0.3,0.7,0.3H38c0.3,0,0.5-0.1,0.7-0.3l-8-7.1c-0.2-0.2-0.3-0.6,0-0.8c0.2-0.2,0.6-0.3,0.8,0l8.3,7.4
			c0.2,0.2,0.2,0.4,0.2,0.6C39.7,36.5,38.8,37,38,37L38,37z"/>
	</g>
	<g>
		<path class="st1" d="M27.4,31.8c-0.1,0-0.3,0-0.4-0.1L15,21c-0.2-0.2-0.2-0.4-0.2-0.6c0.3-0.8,1.1-1.4,2-1.4h21.1
			c0.9,0,1.7,0.6,2,1.4c0.1,0.2,0,0.5-0.2,0.6l-12,10.7C27.7,31.8,27.6,31.8,27.4,31.8L27.4,31.8z M16.2,20.4l11.3,10l11.3-10
			c-0.2-0.2-0.4-0.3-0.7-0.3H17C16.6,20.1,16.3,20.2,16.2,20.4L16.2,20.4z"/>
	</g>
</g>
</svg>
