<?xml version="1.0" encoding="utf-8"?>
<!-- Generator: Adobe Illustrator 21.1.0, SVG Export Plug-In . SVG Version: 6.00 Build 0)  -->
<!DOCTYPE svg PUBLIC "-//W3C//DTD SVG 1.1//EN" "http://www.w3.org/Graphics/SVG/1.1/DTD/svg11.dtd">
<svg version="1.1" id="Layer_1" xmlns="http://www.w3.org/2000/svg" xmlns:xlink="http://www.w3.org/1999/xlink" x="0px" y="0px"
	 viewBox="0 0 51.8 39" style="enable-background:new 0 0 51.8 39;" xml:space="preserve">
<style type="text/css">
	.st0{fill:#999999;}
</style>
<g>
	<path class="st0" d="M26.2,37.4c-0.3,0-0.6-0.1-0.8-0.2c-0.1,0-0.1-0.1-0.2-0.1l-0.5-0.4c-1.3-0.9-4.3-3-6.3-4.5
		C10.8,26.3,6.9,22,6.1,18.7c-0.4-1.1-0.6-2.4-0.6-3.7c0-3.5,1.3-6.9,3.7-9.4c2.2-2.2,5-3.4,8-3.4l0,0c3.4,0,6.4,1.4,8.6,3.7
		C28,3.4,31,2,34.4,2h0.2C41,2,46.2,7.6,46.3,14.5c0,1.3-0.2,2.6-0.5,3.9C45.2,21.5,41.3,26,33.9,32c-2.8,2.3-5.1,4.1-6.8,5.1
		C26.8,37.3,26.5,37.4,26.2,37.4L26.2,37.4z M17.3,5.7c-2.2,0-4.1,0.9-5.6,2.4c-1.8,1.7-2.8,4.2-2.8,6.8c0,1,0.2,1.9,0.5,2.8
		c0.3,1.5,2.2,4.7,11,11.7c1.7,1.4,4.4,3.2,5.8,4.2c1.5-1,3.4-2.5,5.5-4.3c8.7-7.1,10.4-10.4,10.7-11.8c0.3-1.1,0.4-2,0.4-3
		c-0.1-5-3.8-9.1-8.3-9.1h-0.2c-2.9,0-5.6,1.6-7.1,4.3c-0.3,0.5-0.9,0.9-1.5,0.9s-1.2-0.3-1.5-0.8C22.8,7.2,20.2,5.7,17.3,5.7
		L17.3,5.7z"/>
</g>
</svg>
