<?xml version="1.0" encoding="utf-8"?>
<!-- Generator: Adobe Illustrator 22.0.1, SVG Export Plug-In . SVG Version: 6.00 Build 0)  -->
<!DOCTYPE svg PUBLIC "-//W3C//DTD SVG 1.1//EN" "http://www.w3.org/Graphics/SVG/1.1/DTD/svg11.dtd">
<svg version="1.1" id="Layer_1" xmlns="http://www.w3.org/2000/svg" xmlns:xlink="http://www.w3.org/1999/xlink" x="0px" y="0px"
	 viewBox="0 0 43 38" style="enable-background:new 0 0 43 38;" xml:space="preserve">
<style type="text/css">
	.st0{fill:#D1754B;}
</style>
<g>
	<path class="st0" d="M21.8,36.4c-0.3,0-0.6-0.1-0.8-0.2c-0.1,0-0.1-0.1-0.2-0.1l-0.5-0.4c-1.3-0.9-4.3-3-6.3-4.5
		C6.4,25.3,2.5,21,1.7,17.7c-0.4-1.1-0.6-2.4-0.6-3.7c0-3.5,1.3-6.9,3.7-9.4c2.2-2.2,5-3.4,8-3.4l0,0c3.4,0,6.4,1.4,8.6,3.7
		C23.6,2.4,26.6,1,30,1h0.2c6.4,0,11.6,5.6,11.7,12.5c0,1.3-0.2,2.6-0.5,3.9C40.8,20.5,36.9,25,29.5,31c-2.8,2.3-5.1,4.1-6.8,5.1
		C22.4,36.3,22.1,36.4,21.8,36.4L21.8,36.4z M12.9,4.7c-2.2,0-4.1,0.9-5.6,2.4c-1.8,1.7-2.8,4.2-2.8,6.8c0,1,0.2,1.9,0.5,2.8
		c0.3,1.5,2.2,4.7,11,11.7c1.7,1.4,4.4,3.2,5.8,4.2c1.5-1,3.4-2.5,5.5-4.3C36,21.2,37.7,17.9,38,16.5c0.3-1.1,0.4-2,0.4-3
		c-0.1-5-3.8-9.1-8.3-9.1h-0.2c-2.9,0-5.6,1.6-7.1,4.3c-0.3,0.5-0.9,0.9-1.5,0.9s-1.2-0.3-1.5-0.8C18.4,6.2,15.8,4.7,12.9,4.7
		L12.9,4.7z"/>
</g>
</svg>
