<?xml version="1.0" encoding="utf-8"?>
<!-- Generator: Adobe Illustrator 21.1.0, SVG Export Plug-In . SVG Version: 6.00 Build 0)  -->
<!DOCTYPE svg PUBLIC "-//W3C//DTD SVG 1.1//EN" "http://www.w3.org/Graphics/SVG/1.1/DTD/svg11.dtd">
<svg version="1.1" id="Layer_1" xmlns="http://www.w3.org/2000/svg" xmlns:xlink="http://www.w3.org/1999/xlink" x="0px" y="0px"
	 viewBox="0 0 292 39.3" style="enable-background:new 0 0 292 39.3;" xml:space="preserve">
<style type="text/css">
	.st0{fill:#FFFFFF;}
</style>
<path class="st0" d="M73.6,10.9v15.3c0,1-0.3,1.9-1,2.6c-0.7,0.7-1.5,1-2.5,1h-4.7c-1,0-1.8-0.3-2.5-1c-0.7-0.7-1-1.6-1-2.6v-1.4
	c0-0.6,0.3-0.9,0.9-0.9c0.6,0,0.9,0.3,0.9,0.9v1.4c0,0.5,0.2,1,0.5,1.3c0.3,0.3,0.8,0.5,1.3,0.5H70c0.5,0,1-0.2,1.3-0.5
	c0.3-0.4,0.5-0.8,0.5-1.3V10.9C71.7,10,71.4,9.5,71,9.4V9h3.4l0,0.4C74,9.5,73.7,10,73.6,10.9z"/>
<path class="st0" d="M91.8,29.7h-8.4c-1,0-1.9-0.4-2.5-1c-0.7-0.7-1-1.6-1-2.6V12.5c0-1,0.3-1.9,1-2.6c0.7-0.7,1.5-1,2.5-1h8.4
	c1,0,1.9,0.4,2.6,1c0.7,0.7,1,1.5,1,2.6v13.6c0,1-0.3,1.9-1,2.6C93.6,29.4,92.8,29.7,91.8,29.7z M93.6,12.5c0-0.5-0.2-0.9-0.5-1.3
	c-0.4-0.3-0.8-0.5-1.3-0.5h-8.5c-0.5,0-0.9,0.2-1.3,0.5c-0.4,0.4-0.5,0.8-0.5,1.3v13.6c0,0.5,0.2,1,0.5,1.3c0.3,0.4,0.8,0.5,1.3,0.5
	h8.5c0.5,0,1-0.2,1.3-0.5c0.3-0.4,0.5-0.8,0.5-1.3V12.5z"/>
<path class="st0" d="M100.7,29.8l0-0.4c0.5-0.1,0.7-0.6,0.7-1.5v-17c-0.1-0.9-0.3-1.4-0.7-1.5l0-0.4h3.1l0,0.4
	c-0.4,0.1-0.7,0.6-0.8,1.5v17c0.1,0.9,0.4,1.4,0.8,1.5l0,0.4H100.7z"/>
<path class="st0" d="M123.5,29.8l-11.4-19h-0.2v17.1c0.1,0.9,0.4,1.5,0.8,1.5l0,0.4h-3.4l0-0.4c0.5-0.1,0.7-0.6,0.8-1.5v-17
	c-0.1-0.9-0.4-1.4-0.8-1.5l0-0.4h3.8l11.4,19h0.3V10.9c-0.1-0.9-0.4-1.4-0.9-1.5V9h3.4l0,0.4c-0.4,0.1-0.7,0.6-0.8,1.5v17
	c0.1,0.9,0.4,1.5,0.8,1.5l0,0.4H123.5z"/>
<path class="st0" d="M161.8,10.9v15.3c0,1-0.3,1.9-1,2.6c-0.7,0.7-1.5,1.1-2.5,1.1h-4.7c-1,0-1.8-0.4-2.5-1.1c-0.7-0.7-1-1.6-1-2.6
	v-1.4c0-0.6,0.3-0.9,0.9-0.9c0.6,0,0.9,0.3,0.9,0.9v1.4c0,0.5,0.2,1,0.5,1.3c0.4,0.3,0.8,0.5,1.3,0.5h4.7c0.5,0,0.9-0.2,1.3-0.5
	c0.3-0.4,0.5-0.8,0.5-1.3V10.9c-0.1-0.9-0.4-1.4-0.8-1.5V9h3.4l0,0.4C162.2,9.5,161.9,10,161.8,10.9z"/>
<path class="st0" d="M179.9,29.8h-8.4c-1,0-1.9-0.4-2.5-1.1c-0.7-0.7-1-1.6-1-2.6V12.6c0-1,0.3-1.9,1-2.6c0.7-0.7,1.5-1.1,2.5-1.1
	h8.4c1,0,1.9,0.3,2.6,1.1c0.7,0.7,1,1.5,1,2.6v13.6c0,1-0.3,1.9-1,2.6C181.8,29.4,180.9,29.8,179.9,29.8z M181.8,12.5
	c0-0.5-0.2-0.9-0.5-1.3c-0.3-0.3-0.8-0.5-1.3-0.5h-8.5c-0.5,0-0.9,0.2-1.3,0.5c-0.4,0.4-0.5,0.8-0.5,1.3v13.6c0,0.5,0.2,1,0.5,1.3
	c0.3,0.4,0.8,0.5,1.3,0.5h8.5c0.5,0,1-0.2,1.3-0.5c0.3-0.3,0.5-0.8,0.5-1.3L181.8,12.5z"/>
<path class="st0" d="M205.1,10.9v15.3c0,1-0.3,1.9-1,2.6c-0.7,0.7-1.5,1.1-2.6,1.1h-8.1c-1,0-1.9-0.4-2.6-1.1c-0.7-0.7-1-1.6-1-2.6
	V10.9c-0.1-0.9-0.4-1.4-0.8-1.5l0-0.4h3.4l0,0.4c-0.4,0.1-0.7,0.6-0.8,1.5v15.3c0,0.5,0.2,0.9,0.5,1.3c0.4,0.4,0.8,0.5,1.3,0.5h8.1
	c0.5,0,0.9-0.2,1.3-0.5c0.3-0.4,0.5-0.8,0.5-1.3V10.9c-0.1-0.9-0.4-1.4-0.9-1.5l0-0.4h3.4v0.4C205.5,9.4,205.2,9.9,205.1,10.9z"/>
<path class="st0" d="M223,29.3c0.2-0.4,0.3-0.6,0.3-0.8c0-0.1,0-0.3,0-0.4l-3.1-5.4h-2.7c-0.9,0-1.7-0.3-2.4-1
	c-0.6-0.7,1.9-0.6,2.4-0.6h4.9c0.5,0,0.9-0.2,1.3-0.5c0.3-0.4,0.5-0.8,0.5-1.3v-6.6c0-0.5-0.2-0.9-0.5-1.3c-0.4-0.4-0.8-0.5-1.3-0.5
	h-7.1c-0.5,0-1,0.2-1.3,0.5c-0.4,0.4-0.5,0.8-0.5,1.3v14.8c0.1,0.6,0.4,1.2,0.8,1.8h-3.1c0.5-0.7,0.8-1.3,0.8-1.8V12.8
	c0-0.9,0.3-1.7,1-2.4c0.7-0.7,1.4-1,2.4-1h7.1c0.9,0,1.7,0.3,2.4,1c0.7,0.7,1,1.5,1,2.4v6.6c0,0.9-0.3,1.7-1,2.4
	c-0.7,0.7-1.4,1-2.4,1h-0.4l2.8,4.9c0.3,0.5,0.8,1,1.6,1.7H223z"/>
<path class="st0" d="M246,29.9l-11.4-19h-0.2v17.1c0.1,0.9,0.4,1.4,0.8,1.5l0,0.4h-3.4l0-0.4c0.4-0.1,0.7-0.6,0.8-1.5V11
	c-0.1-0.9-0.4-1.4-0.8-1.5l0-0.4h3.8l11.4,19l0.3,0V11c-0.1-0.9-0.4-1.4-0.9-1.5V9h3.4l0,0.4c-0.4,0.1-0.7,0.6-0.8,1.5v17
	c0.1,0.9,0.4,1.4,0.8,1.5l0,0.4H246z"/>
<path class="st0" d="M258.7,29.8c-1,0-1.8-0.4-2.5-1.1c-0.7-0.7-1-1.6-1-2.6V12.6c0-1,0.3-1.9,1-2.6c0.7-0.7,1.5-1.1,2.5-1.1h8.9
	v2.6h-0.4c-0.1-0.4-0.5-0.7-1.5-0.8h-7c-0.5,0-1,0.2-1.3,0.5c-0.3,0.4-0.5,0.8-0.5,1.3v5.9h7.5c0.6,0,0.9,0.3,0.9,0.9
	c0,0.6-0.3,0.9-0.9,0.9h-7.5v5.9c0,0.5,0.2,1,0.5,1.3c0.3,0.3,0.8,0.5,1.3,0.5h7c0.9-0.1,1.4-0.4,1.5-0.8h0.4v2.6H258.7z"/>
<path class="st0" d="M288.7,10.2c-0.1,0.3-0.2,0.5-0.2,0.7v6.5c0,1-0.3,1.9-1.1,2.6c-0.7,0.7-1.6,1-2.6,1h-2
	c-0.5,0.1-0.7,0.6-0.8,1.5v5.4c0.1,0.9,0.4,1.4,0.9,1.5l0,0.4h-3.4l0-0.4c0.5-0.1,0.8-0.6,0.9-1.5v-5.4c-0.1-0.9-0.4-1.4-0.8-1.5h-2
	c-1,0-1.9-0.3-2.6-1c-0.7-0.7-1.1-1.5-1.1-2.6V11c-0.1-0.9-0.4-1.4-0.8-1.5V9h3.4v0.4c-0.4,0-0.7,0.5-0.8,1.5v6.5
	c0,0.5,0.2,0.9,0.5,1.3c0.4,0.3,0.8,0.5,1.3,0.5h7.4c0.5,0,0.9-0.2,1.3-0.5c0.3-0.3,0.5-0.8,0.5-1.3V11c-0.1-0.9-0.4-1.4-0.8-1.5
	l0-0.4h3.4l0,0.4C289,9.5,288.8,9.8,288.7,10.2z"/>
<path class="st0" d="M137.3,12.6c-0.1,0-0.2-0.1-0.3-0.1h-2.1c-0.2,0-0.3,0.3-0.4,0.7v7.1c0.1,0.4,0.2,0.6,0.4,0.7l0,0.2h-1.5l0-0.2
	c0.2,0,0.3-0.3,0.4-0.7v-7.1c0-0.4-0.2-0.6-0.4-0.7h-2.1c-0.4,0-0.6,0.2-0.7,0.4h-0.2v-1.2h7.5v1.2h-0.2
	C137.6,12.8,137.5,12.7,137.3,12.6z"/>
<path class="st0" d="M145.9,21.2l0-0.2c0.2,0,0.3-0.2,0.4-0.7v-3.6h-5.2v3.6c0.1,0.4,0.2,0.6,0.4,0.7l0,0.2H140l0-0.2
	c0.2,0,0.3-0.2,0.4-0.7v-7.7c0-0.4-0.2-0.6-0.4-0.7l0-0.2h1.5l0,0.2c-0.2,0-0.3,0.3-0.4,0.7v3.3h5.2v-3.3c-0.1-0.4-0.2-0.6-0.4-0.7
	l0-0.2h1.5l0,0.2c-0.2,0-0.3,0.3-0.4,0.7v7.7c0,0.4,0.2,0.6,0.4,0.7l0,0.2H145.9z"/>
<path class="st0" d="M151.5,21.2c-0.4,0-0.8-0.2-1.1-0.5c-0.3-0.3-0.5-0.7-0.5-1.2v-6.1c0-0.5,0.2-0.8,0.5-1.2
	c0.3-0.3,0.7-0.5,1.1-0.5h4v1.2h-0.2c0-0.2-0.3-0.3-0.7-0.4h-3.2c-0.2,0-0.4,0.1-0.6,0.2c-0.2,0.2-0.2,0.4-0.2,0.6v2.7h3.4
	c0.3,0,0.4,0.1,0.4,0.4c0,0.3-0.1,0.4-0.4,0.4h-3.4v2.7c0,0.2,0.1,0.4,0.2,0.6c0.2,0.2,0.4,0.2,0.6,0.2h3.2c0.4,0,0.6-0.2,0.7-0.4
	h0.2v1.2H151.5z"/>
<g>
	<path class="st0" d="M28.3,16.3c-0.1,0-0.1,0.1-0.2,0.1c0,0,0.1,0.2,0.2,0.4c0.1,0.1,0.3,0.5,0.5,0.9c0.1,0.2,0.3,0.6,0.4,0.6
		c0.2,0.3,0.2,0.5,0.3,0.7c0,0,0.1,0.2,0.1,0.3c0.1,0.1,0.3,0.4,0.5,0.7c0-0.1,0-0.3,0.1-0.4c0-0.1,0-0.2,0.1-0.3c0-0.2,0-0.2,0-0.4
		l0-0.2c0-0.3,0-0.4-0.1-0.5c0-0.1,0-0.3,0-0.5c0-0.1,0-0.3,0-0.5c0-0.3,0-0.5,0.1-0.7C29.6,16.4,29,16.3,28.3,16.3z"/>
	<path class="st0" d="M44.9,19.2c0,0-4.4,9.3-4.5-4.9L31.6,2.7l5.1,16.9c0,0-1.8-1.7-5-2.7c0,0,0,0,0,0c0,0,0,0.1,0,0.1v0.1
		c0,0.1,0,0.3,0,0.5c0,0.1,0,0.3,0,0.4c0,0.2,0,0.4,0.1,0.5l0,0.1v0.3c0,0.1,0,0.3,0,0.5c0,0.1,0,0.1,0,0.1c0,0.1,0,0.2-0.1,0.3
		c0,0.1,0,0.2-0.1,0.2c0,0,0,0.1,0,0.1c0,0.1,0.1,0.3,0.1,0.4c0,0.2,0,0.4-0.1,0.5c0,0.1,0,0.4,0,0.6c0,0.3,0,0.4,0,0.5
		c0,0.1,0,0.4,0,0.7c3.4,1,7.4,3.3,11.9,7.8l12.8,4.2L44.9,19.2z"/>
	<path class="st0" d="M22.2,23.4l0.1-0.2c0,0,0-0.1-0.1-0.1c-0.1-0.3,0-0.5,0.1-0.6c0,0,0,0,0-0.1c0-0.2,0-0.4,0.1-0.6
		c-0.1-0.3-0.1-0.6,0.1-0.8c-0.2-0.4,0-0.8,0.1-1l0,0c-0.1-0.2-0.1-0.4-0.1-0.5c0,0,0,0,0,0c-0.1-0.1-0.2-0.1-0.6-0.1
		c-0.9-0.1-1.1-0.5-1.2-0.9l0,0c0-0.1,0-0.3,0-0.5c-0.1,0-0.2,0-0.3-0.1c-1.3,0.6-2.7,1.3-4.1,2.3l-13,14.3l12.1-4.4
		C15.3,29.9,17.7,25.7,22.2,23.4L22.2,23.4z"/>
	<path class="st0" d="M31.6,13.8c0-0.2,0-0.1,0-0.2c0-0.1,0.1-0.2,0.1-0.4c0-0.1,0-0.1-0.1-0.1c0,0,0,0,0,0c0-0.2,0.1-0.8,0.1-1.2
		c0-0.4-0.1-0.7-0.1-1.1c0.1-0.4,0.3-0.7,0.2-1c-0.1-0.3-0.9-1.3-0.8,0.4c0,0.4,0.1,0.8,0.1,1.1c0,0.3,0,0.4,0,0.7
		c0,0.3,0,0.4,0,0.7c0,0.2-0.1,0.5-0.1,0.7c-0.4,0.2-0.9,0.5-1.2,0.7c-0.4,0.2-0.8,0.3-1,0.3c-0.2,0-0.5,0-0.3-0.2
		c0.2-0.3,0.3-0.8,0.3-1.2c0-0.5,0-1.3,0-1.8c0-0.5-0.1-0.7-0.2-0.9c-0.1-0.2-0.2-0.3-0.1-0.5c0-0.2,0.1-0.4,0.3-0.5
		c0.1-0.1,0.2-0.1,0.3-0.1c0.2,0,0.4,0,0.5-0.3c0.1-0.3,0.1-0.6,0.2-0.7c0-0.2,0-0.2,0.1-0.3c0.1-0.1,0.1-0.2,0-0.3
		c-0.1-0.1-0.2-0.3-0.3-0.5c0-0.2,0-0.5,0.1-0.6c0,0,0,0,0-0.1L29.9,6c0.3-0.2,0.2-0.6,0.2-0.6l-0.7,0.2c0,0-0.1,0-0.1-0.1
		c0,0-0.1,0-0.2-0.1c-0.2-0.2-0.7-0.6-0.9-0.7c-0.3-0.2-0.5,0.2-0.6,0.1c-0.1,0-0.9,0.4-0.9,0.4l-0.4,0.4v0.4
		c-0.1,0.1-0.3,0.2-0.4,0.3c-0.1,0-0.1,0-0.2,0c-0.1,0-1.1-1-1.2-1.1c-0.1-0.1-0.3-0.2-0.4-0.1c-0.1,0.2-0.3,0.3-0.3,0.4
		c-0.1,0.1-0.2,0.1-0.3,0.1c-0.1,0-0.2,0-0.4,0.1c-0.1,0.1-0.4,0.3-0.5,0.3c-0.1,0-0.5-0.1-0.7,0c-0.2,0.2-0.4,0.4-0.7,0.6
		c-0.3,0.2-0.6,0.5-0.6,1c0,0.6,0,1.1,0,1.4c-0.1,0.3-0.1,0.6,0,1.2c0.1,0.6,0.3,1.1,0.2,1.3c-0.1,0.2-0.6,0.2-0.8,0.2
		c-0.2,0-0.4,0-0.5,0.3c-0.1,0.2-0.1,0.4-0.2,0.6c-0.1,0.2-0.3,0.3-0.4,0.4c-0.1,0.2-0.1,0.3-0.1,0.6c0.1,0.3,0,0.6,0.1,0.8
		c0,0.2-0.1,0.3,0.1,0.6c0.1,0.3-0.3,0.8,0.1,1.2c0.4,0.3,1.2,0.5,1.2,0.6c0.1,0.1-0.1,0.3,0,0.4c0.1,0.1,0.6,0.1,0.7,0.1
		c0.1,0,0,0.6,0.1,0.8c0.1,0.2,0.1,0.5,0.7,0.6c0.6,0,0.8,0.2,1,0.3c0.1,0.1,0.1,0.4,0.2,0.7c0.1,0.2,0.1,0.3,0,0.5
		c-0.1,0.2-0.2,0.4-0.1,0.6c0.2,0.2,0.1,0.3,0,0.4c-0.1,0.1-0.2,0.3-0.1,0.4c0.1,0.1,0.1,0.2,0,0.3c-0.1,0.1,0,0.5-0.1,0.6
		c0,0.1-0.3,0.3,0.2,0.5l-0.2,0.3l0.3,0.3c0,0,0.2,0.3,0,0.7c-0.2,0.3-0.2,0.3-0.2,0.3S23,25,23,25.3c0,0.3-0.3,0.6-0.3,0.6
		l-0.3,0.6l-0.3,0.3l-0.2,0.5l0,0.5c0,0-0.1,0.1-0.1,0.1c-0.4,0.2-0.7,0.4-0.6,0.6c0.1,0.2,1,1.3,1.1,1.5l0.5,0.2
		c0,0,1.4,0.3,1.6,0.2c0,0,0.3-0.2-0.1-0.4l-1.1-1l0.3-0.6l0.3-0.3l0.4-0.5l0.6-0.9c0,0,0.6-1.1,0.6-1.4c0-0.3,0.5-1.9,0.5-1.9
		c0.2,0,0.6-1.2,0.6-1.4c0-0.2,0.3-0.5,0.4-0.4c0.2,0.1,0.5,0.3,0.5,0.4c0,0,0,0,0,0c0,0.1-0.2,0.1-0.1,0.3c0,0.2,0,0.5,0.1,0.7
		c0,0,0,0,0,0c0,0.3,0.1,0.7,0.1,1c0.2,0.7,0.3,0.8,0.2,1.3c-0.1,0.5,0.1,1.3,0.1,1.3s-0.3,0.3-0.3,0.7c0,0.4-0.2,0.8,0,1
		c0.2,0.2,0.1,0.8,0.1,0.8l0.1,0.7c0,0,0.1,0,0.1,0.1c0,0.1,0,0.1,0,0.2l0,0c0,0,0,0,0,0c-0.1,0.4,0,0.7,0,0.7l0.1,0.2l1.1,0.1
		l0-0.1c0.3,0.2,2.1-0.1,2.1-0.1c0.2-0.1,0.1-0.5,0.1-0.5c-0.3-0.2-0.9-0.2-0.9-0.2c-0.2,0-0.5-0.2-0.8-0.3c0-0.2-0.1-0.8-0.1-1
		c0.1-0.3,0.2-0.8,0.1-1.2c-0.1-0.3,0.1-0.7,0.1-0.7s0.2-0.7,0.3-1.3c0.1-0.6,0.1-2.6,0.2-2.9l0,0c0.1-0.2,0.2-0.4,0.1-0.6
		c0-0.3-0.1-0.9-0.3-1.4c-0.2-0.5-0.7-1.3-0.9-1.5c-0.2-0.2-0.3-0.4-0.3-0.6c0-0.1,0-0.3-0.2-0.4c-0.1-0.2-0.7-1.3-0.9-1.5
		c-0.2-0.3-0.4-0.8-0.1-1.1c0.3-0.3,0.8-0.6,1.1-0.7c0.3-0.1,0.8-0.4,1.1-0.4c0.3-0.1,0.6-0.1,0.8-0.1c0,0.1,0,0.1,0,0.2
		c0,0.4,0,0.3,0,0.7c0,0.3,0,0.3,0,0.6c0,0.3-0.2,0.6-0.1,1.1c0,0.4,0,0.8,0,1c0,0.2,0.1,0.3,0.1,0.6c0,0.3,0,0.4,0,0.7
		c-0.1,0.3-0.1,0.5-0.1,0.7c0,0.2,0,0.4,0,0.8c0,0.3,0.1,0.4,0.2,0.7c0,0.3-0.2,0.4-0.1,0.8c0,0.3,0,0.5,0,0.7c0,0.2-0.1,0.3,0,0.5
		c0,0.2,0,0.4,0,0.6c0,0.2,0.1,0.4,0.1,0.7c0,0.3,0,0.7,0,1c0,0.4-0.1,0.9-0.1,1.3c0,0.4,0.1,1.5,0.1,1.8c0,0.3,0,0.8,0,1l0.3,0
		c0-0.3,0.1-0.5,0-0.8c-0.1-0.3-0.1-1.2,0-1.4c0-0.2,0.1-0.3,0.1-0.6c0-0.3,0-0.5,0-0.6c0-0.2,0-1.1,0.1-1.4c0-0.3-0.1-0.9-0.1-1.2
		c0-0.2,0-0.7,0.1-1c0-0.3,0-0.8,0-1c0-0.2,0,0,0-0.4c0-0.5-0.1-0.8,0-0.8c0-0.1,0.1-0.1,0.1-0.3c0-0.2-0.1-0.4-0.1-0.6
		c0-0.2,0.1-0.4,0.1-0.5c0-0.1,0-0.4,0-0.6c0-0.2,0-0.3,0-0.3s-0.1-0.3-0.1-0.6c0-0.3,0.1-0.6,0.1-0.8c0-0.2,0-0.4,0.1-0.5
		c0.1-0.2,0.1-0.6,0.1-0.8c0-0.2,0-0.5,0-0.7c0-0.2,0-0.2,0-0.5c0.1,0,0.2-0.1,0.2-0.2c0-0.1,0-0.2,0.1-0.4
		C31.6,13.9,31.6,14,31.6,13.8z"/>
</g>
</svg>
