<svg id="Layer_1" data-name="Layer 1" xmlns="http://www.w3.org/2000/svg" viewBox="0 0 90 90"><defs><style>.cls-1{fill:#f76f5f;}.cls-2{fill:none;stroke:#fff;stroke-miterlimit:10;}.cls-3{fill:#fff;}</style></defs><title>Porch Bug with Color</title><circle class="cls-1" cx="45" cy="45" r="44.22"/><circle class="cls-2" cx="45" cy="45" r="39.79"/><path class="cls-3" d="M58.09,27.43V24.16H49.62v-.23h.07V20.86H51v-.75H48.41l-.48-.25A3,3,0,0,0,48,19.2a3,3,0,1,0-6,.63l-.5.26H39v.75h1v3.09h0v.23H31.91v3.28a5.78,5.78,0,0,1-4.23,5.68v.75l4.79-.09,1.54,0V34H32.7l-3.44-.06V67.41h10v1.75H50.88V67.41h9.71V33.92L58,34V33.8l4,.07h.35v-.77A5.78,5.78,0,0,1,58.09,27.43ZM45,17.14A2.06,2.06,0,0,1,47,19.2c0,.06,0,.11,0,.17L45,18.3l-2,1c0-.05,0-.1,0-.15A2.06,2.06,0,0,1,45,17.14ZM56.56,62.57H33.65V37H56.56Z"/></svg>