<svg id="Layer_1" data-name="Layer 1" xmlns="http://www.w3.org/2000/svg" viewBox="0 0 28.67 23.05"><defs><style>.cls-1{fill:#fff;}</style></defs><title>Hamburger</title><path class="cls-1" d="M24.06,3.57H5c-.78,0-1.41-.42-1.41-.95S4.21,1.67,5,1.67H24.06c.78,0,1.41.42,1.41.95s-.63.95-1.41.95Z"/><path class="cls-1" d="M24.06,12.12H5c-.78,0-1.41-.42-1.41-.95s.63-.95,1.41-.95H24.06c.78,0,1.41.42,1.41.95s-.63.95-1.41.95Z"/><path class="cls-1" d="M24.06,20.67H5c-.78,0-1.41-.42-1.41-.95s.63-.95,1.41-.95H24.06c.78,0,1.41.42,1.41.95s-.63.95-1.41.95Z"/></svg>