<?xml version="1.0" encoding="utf-8"?>
<!-- Generator: Adobe Illustrator 21.1.0, SVG Export Plug-In . SVG Version: 6.00 Build 0)  -->
<!DOCTYPE svg PUBLIC "-//W3C//DTD SVG 1.1//EN" "http://www.w3.org/Graphics/SVG/1.1/DTD/svg11.dtd">
<svg version="1.1" id="Layer_1" xmlns="http://www.w3.org/2000/svg" xmlns:xlink="http://www.w3.org/1999/xlink" x="0px" y="0px"
	 viewBox="0 0 85.3 86.7" style="enable-background:new 0 0 85.3 86.7;" xml:space="preserve">
<style type="text/css">
	.st0{fill:#D1754B;}
	.st1{fill:none;stroke:#D1754B;stroke-width:3;stroke-miterlimit:10;}
</style>
<g>
	<g>
		<path class="st0" d="M57.2,69.9H27.1c-2.7,0-4.9-2.2-4.9-4.9V24.4c0-1.2,1-2.2,2.2-2.2s2.2,1,2.2,2.2v40.5c0,0.3,0.3,0.6,0.6,0.6
			h30.2c0.3,0,0.6-0.3,0.6-0.6V30.7c0-0.3-0.3-0.6-0.6-0.6c-1.2,0-2.2-1-2.2-2.2c0-1.2,1-2.2,2.2-2.2c2.7,0,4.9,2.2,4.9,4.9v34.2
			C62.2,67.7,60,69.9,57.2,69.9L57.2,69.9z"/>
	</g>
	<g>
		<path class="st0" d="M56.8,30.1h-28c-3.7,0-6.7-3-6.7-6.7s3-6.7,6.7-6.7H60c1.2,0,2.2,1,2.2,2.2c0,1.2-1,2.2-2.2,2.2H28.8
			c-1.3,0-2.4,1.1-2.4,2.4s1.1,2.4,2.4,2.4h28c1.2,0,2.2,1,2.2,2.2C59,29.3,58,30.1,56.8,30.1L56.8,30.1z"/>
	</g>
	<g>
		<path class="st0" d="M42,53.5c-0.3,0-0.6-0.1-0.9-0.2l-3.8-1.7l-3.9,1.7c-0.7,0.3-1.4,0.2-2.1-0.2c-0.6-0.4-1-1.1-1-1.8V30.1
			c0-1.2,1-2.2,2.2-2.2c1.2,0,2.2,1,2.2,2.2v18l1.7-0.8c0.6-0.2,1.2-0.2,1.7,0l1.7,0.8v-18c0-1.2,1-2.2,2.2-2.2s2.2,1,2.2,2.2v21.3
			c0,0.7-0.4,1.4-1,1.8C42.9,53.4,42.5,53.5,42,53.5L42,53.5z"/>
	</g>
</g>
<circle class="st1" cx="42.2" cy="43.3" r="39.4"/>
</svg>
