<?xml version="1.0" encoding="utf-8"?>
<!-- Generator: Adobe Illustrator 22.0.1, SVG Export Plug-In . SVG Version: 6.00 Build 0)  -->
<!DOCTYPE svg PUBLIC "-//W3C//DTD SVG 1.1//EN" "http://www.w3.org/Graphics/SVG/1.1/DTD/svg11.dtd">
<svg version="1.1" id="Layer_1" xmlns="http://www.w3.org/2000/svg" xmlns:xlink="http://www.w3.org/1999/xlink" x="0px" y="0px"
	 viewBox="0 0 65 34.8" style="enable-background:new 0 0 65 34.8;" xml:space="preserve">
<style type="text/css">
	.st0{fill:#D1754B;}
</style>
<g>
	<g>
		<path class="st0" d="M64.1,21.1c1.1,1.1,1.1,2.9,0,4.1l-8.8,8.8c-0.5,0.5-1.3,0.9-2,0.9s-1.5-0.4-2-0.9l-8.8-8.8
			c-1.1-1.1-1.1-2.9,0-4.1s2.8-1.1,3.9,0l4.1,4.1V6.5h-25c-1.5,0-2.8-1.4-2.8-2.9c0-1.5,1.3-2.8,2.8-2.8h27.8c1.5,0,2.8,1.3,2.8,2.8
			v21.6l4.1-4.1C61.4,20,63,20,64.1,21.1L64.1,21.1z M64.1,21.1"/>
		<path class="st0" d="M39.8,29.1c1.5,0,2.8,1.4,2.8,2.9c0,1.5-1.3,2.8-2.8,2.8H12c-1.5,0-2.8-1.3-2.8-2.8V10.5l-4.1,4.1
			c-1.1,1.1-2.8,1.1-3.9,0c-1.1-1.1-1.1-2.9,0-4.1L10,1.6c0.5-0.5,1.3-0.8,2-0.8c0.8,0,1.5,0.3,2,0.8l8.8,8.9c1.1,1.1,1.1,2.9,0,4.1
			c-0.5,0.5-1.3,0.8-2,0.8c-0.8,0-1.4-0.3-1.9-0.8l-4.1-4.1v18.6H39.8z M39.8,29.1"/>
	</g>
</g>
</svg>
