<?xml version="1.0" encoding="utf-8"?>
<!-- Generator: Adobe Illustrator 21.1.0, SVG Export Plug-In . SVG Version: 6.00 Build 0)  -->
<!DOCTYPE svg PUBLIC "-//W3C//DTD SVG 1.1//EN" "http://www.w3.org/Graphics/SVG/1.1/DTD/svg11.dtd">
<svg version="1.1" id="Layer_3" xmlns="http://www.w3.org/2000/svg" xmlns:xlink="http://www.w3.org/1999/xlink" x="0px" y="0px"
	 viewBox="0 0 24.5 24.2" style="enable-background:new 0 0 24.5 24.2;" xml:space="preserve">
<style type="text/css">
	.st0{fill:#FFFFFF;}
</style>
<title>Search Icon</title>
<path class="st0" d="M10.6,20.5c-5.5,0-10-4.5-10-10s4.5-10,10-10s10,4.5,10,10S16.1,20.5,10.6,20.5z M10.6,2.6c-4.4,0-8,3.6-8,8
	s3.6,8,8,8s8-3.6,8-8S15,2.6,10.6,2.6z"/>
<path class="st0" d="M22.5,23.8c-0.3,0-0.5-0.1-0.7-0.3l-5.6-5.6c-0.4-0.4-0.4-1,0-1.4c0.4-0.4,1-0.4,1.4,0l0,0l5.6,5.6
	c0.4,0.4,0.4,1,0,1.4C23,23.7,22.8,23.8,22.5,23.8L22.5,23.8z"/>
</svg>
