<?xml version="1.0" encoding="utf-8"?>
<!-- Generator: Adobe Illustrator 22.0.1, SVG Export Plug-In . SVG Version: 6.00 Build 0)  -->
<!DOCTYPE svg PUBLIC "-//W3C//DTD SVG 1.1//EN" "http://www.w3.org/Graphics/SVG/1.1/DTD/svg11.dtd">
<svg version="1.1" id="Layer_1" xmlns="http://www.w3.org/2000/svg" xmlns:xlink="http://www.w3.org/1999/xlink" x="0px" y="0px"
	 viewBox="0 0 32 32" style="enable-background:new 0 0 32 32;" xml:space="preserve">
<style type="text/css">
	.st0{fill:#76787B;}
</style>
<g>
	<path class="st0" d="M14.1,27.5c-7.6,0-13.7-6.2-13.7-13.7C0.4,6.2,6.6,0,14.1,0c7.6,0,13.7,6.2,13.7,13.7
		C27.9,21.3,21.7,27.5,14.1,27.5L14.1,27.5z M14.1,2.8c-6.1,0-11,4.9-11,11c0,6,4.9,11,11,11c6.1,0,11-4.9,11-11
		C25.1,7.7,20.2,2.8,14.1,2.8L14.1,2.8z"/>
</g>
<g>
	<path class="st0" d="M30.5,32c-0.4,0-0.7-0.1-1-0.4l-7.7-7.7c-0.5-0.5-0.5-1.4,0-1.9c0.5-0.5,1.4-0.5,1.9,0l7.7,7.7
		c0.5,0.5,0.5,1.4,0,1.9C31.2,31.9,30.8,32,30.5,32L30.5,32z"/>
</g>
</svg>
