<?xml version="1.0" encoding="utf-8"?>
<!-- Generator: Adobe Illustrator 22.0.1, SVG Export Plug-In . SVG Version: 6.00 Build 0)  -->
<!DOCTYPE svg PUBLIC "-//W3C//DTD SVG 1.1//EN" "http://www.w3.org/Graphics/SVG/1.1/DTD/svg11.dtd">
<svg version="1.1" id="Layer_1" xmlns="http://www.w3.org/2000/svg" xmlns:xlink="http://www.w3.org/1999/xlink" x="0px" y="0px"
	 viewBox="0 0 47 46" style="enable-background:new 0 0 47 46;" xml:space="preserve">
<style type="text/css">
	.st0{fill:#FFFFFF;}
</style>
<g>
	<g>
		<g>
			<path class="st0" d="M30.9,24.5h-15c-1.1,0-1.9-0.9-1.9-1.9c0-1.1,0.9-1.9,1.9-1.9h15c1.1,0,1.9,0.9,1.9,1.9
				C32.8,23.7,31.9,24.5,30.9,24.5L30.9,24.5z"/>
		</g>
	</g>
	<g>
		<path class="st0" d="M23.3,45.1c-6,0-11.7-2.3-15.9-6.6c-4.3-4.2-6.6-9.9-6.6-15.9S3.2,10.9,7.4,6.7c4.2-4.2,9.9-6.6,15.9-6.6
			c6,0,11.7,2.3,15.9,6.6c8.8,8.8,8.8,23,0,31.8C35,42.8,29.3,45.1,23.3,45.1L23.3,45.1z M23.3,3.9c-5,0-9.7,1.9-13.2,5.5
			c-3.5,3.5-5.5,8.2-5.5,13.2s1.9,9.7,5.5,13.2c3.5,3.5,8.2,5.5,13.2,5.5c5,0,9.7-1.9,13.2-5.5c7.3-7.3,7.3-19.1,0-26.4
			C33,5.9,28.3,3.9,23.3,3.9L23.3,3.9z"/>
	</g>
</g>
</svg>
