<?xml version="1.0" encoding="utf-8"?>
<!-- Generator: Adobe Illustrator 21.1.0, SVG Export Plug-In . SVG Version: 6.00 Build 0)  -->
<!DOCTYPE svg PUBLIC "-//W3C//DTD SVG 1.1//EN" "http://www.w3.org/Graphics/SVG/1.1/DTD/svg11.dtd">
<svg version="1.1" id="Layer_1" xmlns="http://www.w3.org/2000/svg" xmlns:xlink="http://www.w3.org/1999/xlink" x="0px" y="0px"
	 viewBox="0 0 54.3 54.3" style="enable-background:new 0 0 54.3 54.3;" xml:space="preserve">
<style type="text/css">
	.st0{fill:#1E232B;}
	.st1{fill:none;stroke:#1E232B;stroke-width:1.5;stroke-miterlimit:10;}
</style>
<path id="XMLID_25_" class="st0" d="M42.5,18.7c-1.1,0.5-2.3,0.8-3.6,1c1.3-0.8,2.3-2,2.7-3.4c-1.2,0.7-2.5,1.2-4,1.5
	c-1.1-1.2-2.8-1.9-4.6-1.9c-3.5,0-6.2,2.8-6.2,6.2c0,0.5,0.1,0.9,0.2,1.4c-5.2-0.3-9.8-2.7-12.9-6.4c-0.5,0.9-0.8,2-0.8,3.1
	c0,2.1,1.1,4,2.8,5.1c-1,0-2-0.3-2.8-0.8v0.1c0,0.8,0.2,1.5,0.4,2.2c0.8,1.9,2.5,3.4,4.6,3.8c-0.5,0.1-1.1,0.2-1.6,0.2
	c-0.4,0-0.8,0-1.2-0.1c0.8,2.4,3.1,4.2,5.8,4.3c-2.1,1.7-4.8,2.6-7.8,2.6c-0.5,0-1,0-1.5-0.1c2.8,1.7,6.1,2.8,9.6,2.8
	c9.8,0,15.8-6.8,17.4-13.8c0.3-1.2,0.4-2.5,0.4-3.7c0-0.3,0-0.5,0-0.8C40.6,21,41.7,19.9,42.5,18.7z"/>
<circle class="st1" cx="27.3" cy="27.3" r="25"/>
</svg>
