<?xml version="1.0" encoding="utf-8"?>
<!-- Generator: Adobe Illustrator 22.0.1, SVG Export Plug-In . SVG Version: 6.00 Build 0)  -->
<!DOCTYPE svg PUBLIC "-//W3C//DTD SVG 1.1//EN" "http://www.w3.org/Graphics/SVG/1.1/DTD/svg11.dtd">
<svg version="1.1" id="Layer_1" xmlns="http://www.w3.org/2000/svg" xmlns:xlink="http://www.w3.org/1999/xlink" x="0px" y="0px"
	 viewBox="0 0 54.3 54.3" style="enable-background:new 0 0 54.3 54.3;" xml:space="preserve">
<style type="text/css">
	.st0{fill:#1E232B;}
</style>
<path id="XMLID_25_" class="st0" d="M53.6,11.8c-1.9,0.9-4,1.4-6.2,1.7c2.2-1.4,4-3.5,4.7-5.9c-2.1,1.2-4.3,2.1-6.9,2.6
	c-1.9-2.1-4.8-3.3-8-3.3c-6.1,0-10.7,4.8-10.7,10.7c0,0.9,0.2,1.6,0.3,2.4c-9-0.5-16.9-4.7-22.3-11.1c-0.9,1.6-1.4,3.5-1.4,5.4
	c0,3.6,1.9,6.9,4.8,8.8c-1.7,0-3.5-0.5-4.8-1.4V22c0,1.4,0.3,2.6,0.7,3.8c1.4,3.3,4.3,5.9,8,6.6c-0.9,0.2-1.9,0.3-2.8,0.3
	c-0.7,0-1.4,0-2.1-0.2c1.4,4.2,5.4,7.3,10,7.4c-3.6,2.9-8.3,4.5-13.5,4.5c-0.9,0-1.7,0-2.6-0.2c4.8,2.9,10.5,4.8,16.6,4.8
	c16.9,0,27.3-11.8,30.1-23.9c0.5-2.1,0.7-4.3,0.7-6.4c0-0.5,0-0.9,0-1.4C50.3,15.8,52.2,13.9,53.6,11.8z"/>
</svg>
